<svg xmlns="http://www.w3.org/2000/svg"
     viewBox="0 0 933 931">
  <path id="Selection"
        fill="black" stroke="black" stroke-width="48"
        d="M 602.00,467.00
           C 602.00,467.00 460.00,609.00 460.00,609.00
             460.00,609.00 366.00,703.00 366.00,703.00
             366.00,703.00 285.00,784.00 285.00,784.00
             273.05,795.95 256.94,808.19 258.09,827.00
             259.47,849.36 283.06,862.38 303.00,853.09
             311.06,849.33 326.02,832.98 333.00,826.00
             333.00,826.00 391.00,768.00 391.00,768.00
             391.00,768.00 588.00,571.00 588.00,571.00
             588.00,571.00 657.00,502.00 657.00,502.00
             668.27,490.73 680.76,480.87 677.54,463.00
             674.74,447.51 660.65,436.65 650.00,426.00
             650.00,426.00 583.00,359.00 583.00,359.00
             583.00,359.00 402.00,178.00 402.00,178.00
             402.00,178.00 343.00,119.00 343.00,119.00
             343.00,119.00 311.00,87.47 311.00,87.47
             287.61,68.49 256.39,85.33 258.09,113.00
             259.03,128.24 271.02,137.02 281.00,147.00
             281.00,147.00 341.00,207.00 341.00,207.00
             341.00,207.00 515.00,381.00 515.00,381.00
             515.00,381.00 571.00,437.00 571.00,437.00
             577.87,443.87 595.41,462.28 602.00,467.00 Z" />
</svg>
