<?xml version="1.0" encoding="UTF-8"?>
<svg width="500mm" height="500mm" version="1.1" viewBox="0 0 500 500" xmlns="http://www.w3.org/2000/svg" xmlns:cc="http://creativecommons.org/ns#" xmlns:dc="http://purl.org/dc/elements/1.1/" xmlns:rdf="http://www.w3.org/1999/02/22-rdf-syntax-ns#">
 <defs>
  <clipPath id="clipPath178">
   <path d="m0 1.207e-5h959.76v540h-959.76z"/>
  </clipPath>
 </defs>
 <metadata>
  <rdf:RDF>
   <cc:Work rdf:about="">
    <dc:format>image/svg+xml</dc:format>
    <dc:type rdf:resource="http://purl.org/dc/dcmitype/StillImage"/>
    <dc:title/>
   </cc:Work>
  </rdf:RDF>
 </metadata>
 <g transform="matrix(1.0127 0 0 -.98432 -247 503.26)">
  <g clip-path="url(#clipPath178)">
   <path d="m0 540h959.76v-540h-959.76z" fill="#fff"/>
  </g>
  <path d="m0 540h960v-540h-960z" fill="#fff"/>
  <g fill="#5647fb">
   <path d="m222.3 541.8h549.66v-549.66h-549.66z" fill-opacity=".7686"/>
   <g fill-opacity=".2196" fill-rule="evenodd">
    <path d="m-9.6725 95.953c9.6525 43.882 6.435 150.62 48.263 192.13 41.828 41.51 154.44 24.115 202.7 56.927 48.263 32.812 34.857 108.32 86.873 139.95 52.017 31.626 175.36 22.138 225.23 49.812 49.872 27.673 42.364 96.065 74.003 116.23 31.639 20.162 42.9 56.137 115.83 4.744s273.49-200.04 321.75-313.1c48.263-113.06 88.482-289.38-32.175-365.28-120.66-75.903-516.41-98.042-691.77-90.135-175.36 7.9066-302.98 101.99-360.36 137.57-57.379 35.58 3.2e-4 27.278 9.6528 71.159z"/>
    <path d="m130.24 3.8794c-2.6811 47.44 6.9714 144.69 48.263 185.01 41.292 40.324 149.61 26.092 199.49 56.927 49.872 30.836 54.162 100.41 99.743 128.09 45.582 27.673 126.02 14.627 173.75 37.952 47.727 23.324 50.408 81.438 112.61 101.99 62.205 20.557 222.55 88.949 260.62 21.348 38.074-67.602 23.596-324.57-32.175-426.96-55.77-102.39-169.46-153.39-302.45-187.39-132.99-33.998-401.65-31.231-495.5-16.604-93.844 14.627-61.669 52.184-64.35 99.623z"/>
    <path d="m113.15 28.574c-2.6812 47.44 6.9713 144.69 48.263 185.01 41.292 40.324 149.61 26.092 199.49 56.927 49.872 30.836 54.162 100.41 99.743 128.09 45.582 27.673 126.02 14.627 173.75 37.952 47.727 23.324 50.408 81.438 112.61 102 62.205 20.557 222.55 88.949 260.62 21.348 38.074-67.601 23.596-324.57-32.175-426.96-55.77-102.39-169.46-153.39-302.45-187.39-132.99-33.998-401.65-31.231-495.5-16.604-93.844 14.627-61.669 52.184-64.35 99.623z"/>
    <path d="m-25.753 112.31c9.6525 43.882 6.435 150.62 48.263 192.13 41.828 41.51 154.44 24.115 202.7 56.927 48.263 32.812 34.856 108.32 86.873 139.95 52.017 31.626 175.35 22.138 225.23 49.812 49.872 27.673 42.364 96.065 74.003 116.23 31.639 20.162 42.9 56.137 115.83 4.744 72.93-51.393 273.49-200.04 321.75-313.1 48.262-113.06 88.481-289.38-32.176-365.28-120.66-75.903-516.41-98.042-691.77-90.135-175.36 7.9066-302.98 101.99-360.36 137.57-57.379 35.58 3.1e-4 27.278 9.6528 71.159z"/>
    <path d="m251.54-47.526c-2.6812 22.929-2.6815 108.72 35.393 142.32 38.074 33.603 143.72 28.859 193.05 59.299s61.133 96.856 102.96 123.34c41.828 26.487 96.526 10.674 148.01 35.58 51.48 24.906 107.25 106.34 160.88 113.85s151.76 3.558 160.88-68.787c9.117-72.345-42.364-292.15-106.18-365.28-63.814-73.136-169.46-67.601-276.71-73.531-107.25-5.93-297.62 32.022-366.8 37.952-69.177 5.93-48.799-27.673-51.48-4.7439z"/>
    <path d="m235.46-31.166c-2.6812 22.929-2.6814 108.72 35.393 142.32 38.074 33.603 143.72 28.859 193.05 59.299 49.335 30.44 61.133 96.856 102.96 123.34 41.828 26.487 96.526 10.674 148.01 35.58 51.48 24.906 107.25 106.34 160.88 113.85s151.76 3.558 160.88-68.787c9.117-72.345-42.364-292.15-106.18-365.28-63.814-73.136-169.46-67.601-276.71-73.531-107.25-5.93-297.62 32.022-366.8 37.952-69.177 5.93-48.799-27.673-51.48-4.7439z"/>
    <path d="m391.15-156.98c-2.6812 22.929-2.6815 108.72 35.393 142.32 38.074 33.603 143.72 28.859 193.05 59.299 49.335 30.44 61.133 96.856 102.96 123.34s96.526 10.674 148.01 35.58c51.48 24.906 107.25 106.34 160.88 113.85 53.625 7.5113 151.76 3.558 160.88-68.787 9.116-72.345-42.364-292.15-106.18-365.28-63.814-73.136-169.46-67.602-276.71-73.531-107.25-5.93-297.62 32.022-366.8 37.952-69.177 5.9299-48.799-27.673-51.48-4.7439z"/>
    <path d="m375.07-140.62c-2.6812 22.929-2.6814 108.72 35.393 142.32 38.074 33.603 143.72 28.859 193.05 59.299 49.335 30.44 61.133 96.856 102.96 123.34 41.828 26.487 96.526 10.674 148.01 35.58 51.48 24.906 107.25 106.34 160.88 113.85 53.625 7.5113 151.76 3.558 160.88-68.787 9.116-72.345-42.364-292.15-106.18-365.28-63.814-73.136-169.46-67.601-276.71-73.531-107.25-5.9299-297.62 32.022-366.8 37.952-69.177 5.9299-48.799-27.673-51.48-4.7439z"/>
   </g>
  </g>
 </g>
</svg>
