<?xml version="1.0" encoding="UTF-8" standalone="no"?>
<!DOCTYPE svg PUBLIC "-//W3C//DTD SVG 20010904//EN"
              "http://www.w3.org/TR/2001/REC-SVG-20010904/DTD/svg10.dtd">

<svg xmlns="http://www.w3.org/2000/svg"
     width="44.4523mm" height="27.5181mm"
     viewBox="0 0 252 156">
  <path id="Selection"
        fill="white" stroke="white" stroke-width="10"
        d="M 14.00,0.56
           C 2.87,4.44 0.02,12.11 0.00,23.00
             0.00,23.00 0.00,134.00 0.00,134.00
             0.00,137.02 -0.10,140.08 0.80,143.00
             4.84,156.08 15.86,156.00 27.00,156.00
             27.00,156.00 53.00,156.00 53.00,156.00
             53.00,156.00 230.00,156.00 230.00,156.00
             244.76,155.98 251.98,148.70 252.00,134.00
             252.00,134.00 252.00,22.00 252.00,22.00
             252.00,19.00 252.12,15.88 251.15,13.00
             249.38,7.78 244.22,2.62 239.00,0.85
             235.48,-0.34 228.91,0.00 225.00,0.00
             225.00,0.00 199.00,0.00 199.00,0.00
             199.00,0.00 76.00,0.00 76.00,0.00
             76.00,0.00 36.00,0.00 36.00,0.00
             29.86,0.00 19.65,-0.43 14.00,0.56 Z
           M 17.02,12.60
           C 22.40,11.44 34.86,12.00 41.00,12.00
             41.00,12.00 86.00,12.00 86.00,12.00
             86.00,12.00 228.00,12.00 228.00,12.00
             234.28,12.01 239.31,12.24 239.94,20.00
             240.09,21.77 240.10,24.83 239.01,26.30
             237.90,27.81 233.80,29.41 232.00,30.23
             232.00,30.23 215.00,37.77 215.00,37.77
             215.00,37.77 155.00,64.42 155.00,64.42
             155.00,64.42 128.00,76.17 128.00,76.17
             122.40,77.44 107.74,69.40 102.00,66.86
             102.00,66.86 36.00,37.58 36.00,37.58
             36.00,37.58 20.00,30.58 20.00,30.58
             17.98,29.69 14.26,28.18 12.99,26.37
             11.91,24.82 11.91,21.83 12.06,20.00
             12.40,15.75 13.46,14.61 17.02,12.60 Z
           M 240.00,39.00
           C 240.00,39.00 240.00,132.00 240.00,132.00
             239.99,135.89 240.36,139.78 236.85,142.40
             233.82,144.67 226.80,144.00 223.00,144.00
             223.00,144.00 190.00,144.00 190.00,144.00
             190.00,144.00 24.00,144.00 24.00,144.00
             21.01,144.00 16.84,144.31 14.43,142.26
             10.65,139.05 12.00,124.11 12.00,119.00
             12.00,119.00 12.00,39.00 12.00,39.00
             12.00,39.00 39.00,50.58 39.00,50.58
             39.00,50.58 94.00,74.86 94.00,74.86
             94.00,74.86 115.00,84.23 115.00,84.23
             115.00,84.23 126.00,88.09 126.00,88.09
             126.00,88.09 137.00,84.15 137.00,84.15
             137.00,84.15 158.00,74.86 158.00,74.86
             158.00,74.86 208.00,52.70 208.00,52.70
             208.00,52.70 240.00,39.00 240.00,39.00 Z" />
</svg>
