<?xml version="1.0" encoding="UTF-8" standalone="no"?>
<svg
   xmlns:dc="http://purl.org/dc/elements/1.1/"
   xmlns:cc="http://creativecommons.org/ns#"
   xmlns:rdf="http://www.w3.org/1999/02/22-rdf-syntax-ns#"
   xmlns:svg="http://www.w3.org/2000/svg"
   xmlns="http://www.w3.org/2000/svg"
   xmlns:sodipodi="http://sodipodi.sourceforge.net/DTD/sodipodi-0.dtd"
   xmlns:inkscape="http://www.inkscape.org/namespaces/inkscape"
   sodipodi:docname="partnersimage.svg"
   inkscape:version="1.0rc1 (09960d6, 2020-04-09)"
   id="svg8"
   version="1.1"
   viewBox="0 0 500 500"
   height="500mm"
   width="500mm">
  <defs
     id="defs2">
    <clipPath
       clipPathUnits="userSpaceOnUse"
       id="clipPath28">
      <path
         d="M 0,1.206994e-5 H 959.76 V 540.00001 H 0 Z"
         id="path26"
         inkscape:connector-curvature="0" />
    </clipPath>
    <clipPath
       clipPathUnits="userSpaceOnUse"
       id="clipPath90">
      <path
         d="M 0,1.206994e-5 H 959.76 V 540.00001 H 0 Z"
         id="path88"
         inkscape:connector-curvature="0" />
    </clipPath>
  </defs>
  <sodipodi:namedview
     inkscape:window-maximized="0"
     inkscape:window-y="23"
     inkscape:window-x="0"
     inkscape:window-height="1271"
     inkscape:window-width="1728"
     showgrid="false"
     inkscape:document-rotation="0"
     inkscape:current-layer="layer1"
     inkscape:document-units="mm"
     inkscape:cy="1017.1429"
     inkscape:cx="400"
     inkscape:zoom="0.22"
     inkscape:pageshadow="2"
     inkscape:pageopacity="0.0"
     borderopacity="1.0"
     bordercolor="#666666"
     pagecolor="#ffffff"
     id="base" />
  <metadata
     id="metadata5">
    <rdf:RDF>
      <cc:Work
         rdf:about="">
        <dc:format>image/svg+xml</dc:format>
        <dc:type
           rdf:resource="http://purl.org/dc/dcmitype/StillImage" />
        <dc:title></dc:title>
      </cc:Work>
    </rdf:RDF>
  </metadata>
  <g
     id="layer1"
     inkscape:groupmode="layer"
     inkscape:label="Layer 1">
    <g
       id="g80"
       inkscape:label="svgpdf"
       transform="matrix(1.0543196,0,0,-1.0481113,-282.87076,552.23287)">
      <g
         id="g82" />
      <g
         id="g84">
        <g
           id="g86"
           clip-path="url(#clipPath90)">
          <path
             d="M 0,540 H 959.76 V 1.206994e-5 H 0 Z"
             style="fill:#ffffff;fill-opacity:1;fill-rule:nonzero;stroke:none"
             id="path92"
             inkscape:connector-curvature="0" />
        </g>
      </g>
      <g
         id="g94">
        <path
           d="M 0,540 H 960 V 1.40816e-5 H 0 Z"
           style="fill:#ffffff;fill-opacity:1;fill-rule:nonzero;stroke:none"
           id="path96"
           inkscape:connector-curvature="0" />
        <path
           d="m 943.1855,126.7048 c -8.7047,39.5726 -5.8031,135.8302 -43.5236,173.2637 -37.7205,37.4335 -139.2758,21.7471 -182.7994,51.3374 -43.5235,29.5903 -31.4338,97.6837 -78.3424,126.2045 -46.909,28.5208 -158.1359,19.9646 -203.1104,44.9203 -44.9745,24.9557 -38.2043,86.6319 -66.7364,104.8138 -28.5321,18.182 -38.6878,50.6246 -104.4567,4.2782 C 198.4477,585.1764 17.58268,451.1289 -25.94089,349.1669 -69.46445,247.2052 -105.7343,88.20164 3.074739,19.75179 111.8838,-48.69806 468.7779,-68.66266 626.9138,-61.5325 c 158.1358,7.13017 273.2318,91.97944 324.9766,124.06545 51.7446,32.08599 -3e-4,24.59922 -8.7049,64.17185 z"
           style="fill:#5647fb;fill-opacity:0.102;fill-rule:evenodd;stroke:none"
           id="path98"
           inkscape:connector-curvature="0" />
        <path
           d="m 926.6667,106.6461 c -8.7047,39.5725 -5.8031,135.8302 -43.5236,173.2637 -37.7205,37.4335 -139.2758,21.747 -182.7994,51.3374 -43.5236,29.5902 -31.4338,97.6837 -78.3425,126.2045 -46.9089,28.5208 -158.1358,19.9646 -203.1103,44.9202 -44.9745,24.9557 -38.2043,86.632 -66.7364,104.8139 -28.5321,18.1819 -38.6878,50.6245 -104.4567,4.2782 C 181.9288,565.1177 1.063861,431.0701 -42.45971,329.1082 -85.98327,227.1465 -122.2531,68.14293 -13.44408,-0.3069131 95.36496,-68.75676 452.2591,-88.72135 610.3949,-81.59119 c 158.1359,7.13016 273.2319,91.97943 324.9767,124.06543 51.7447,32.08599 -3e-4,24.59923 -8.7049,64.17186 z"
           style="fill:#5647fb;fill-opacity:0.102;fill-rule:evenodd;stroke:none"
           id="path100"
           inkscape:connector-curvature="0" />
        <path
           d="m 842.5994,14.09239 c 2.4179,42.78115 -6.2867,130.48251 -43.5236,166.84661 -37.2368,36.364 -134.9232,23.5296 -179.8977,51.3374 -44.9745,27.8078 -48.8431,90.5535 -89.9488,115.5092 -41.1056,24.9556 -113.6451,13.1908 -156.6851,34.2249 -43.0401,21.034 -45.4583,73.4409 -101.5553,91.9794 C 214.8918,492.5285 70.29666,554.2047 35.96125,493.2415 1.62584,432.2782 14.68284,200.547 64.97688,108.2109 115.2709,15.87488 217.7934,-30.11501 337.7253,-60.77477 c 119.9318,-30.65975 362.2134,-28.16422 446.8426,-14.97336 84.6292,13.19086 55.6136,47.05936 58.0315,89.84052 z"
           style="fill:#5647fb;fill-opacity:0.102;fill-rule:evenodd;stroke:none"
           id="path102"
           inkscape:connector-curvature="0" />
        <path
           d="m 858.0095,36.36211 c 2.4179,42.78115 -6.2868,130.48259 -43.5236,166.84659 -37.2368,36.364 -134.9232,23.5296 -179.8977,51.3374 -44.9745,27.8078 -48.8431,90.5535 -89.9488,115.5092 -41.1056,24.9557 -113.6451,13.1909 -156.6852,34.2249 -43.04,21.0341 -45.4582,73.4409 -101.5553,91.9795 C 230.3019,514.7982 85.70673,576.4745 51.37133,515.5112 17.03592,454.548 30.09292,222.8167 80.38696,130.4807 130.681,38.1446 233.2035,-7.845286 353.1353,-38.50504 473.0672,-69.1648 715.3488,-66.66927 799.978,-53.4784 c 84.6292,13.19086 55.6136,47.059354 58.0315,89.84051 z"
           style="fill:#5647fb;fill-opacity:0.102;fill-rule:evenodd;stroke:none"
           id="path104"
           inkscape:connector-curvature="0" />
        <path
           d="m 733.2059,-32.26506 c 2.4179,20.67763 2.4181,98.04014 -31.9173,128.34346 -34.3354,30.3033 -129.6039,26.0253 -174.0947,53.4765 -44.4908,27.4512 -55.1299,87.3448 -92.8504,111.231 -37.7205,23.8862 -87.0474,9.6259 -133.4725,32.086 -46.4252,22.4601 -96.7193,95.901 -145.0789,102.6748 C 107.4325,402.3204 18.93465,398.7552 10.71347,333.5139 2.492296,268.2726 48.91749,70.05328 106.4655,4.098966 164.0135,-61.85535 259.2818,-56.86429 356.0011,-62.21196 c 96.7192,-5.34766 268.3958,28.87726 330.7796,34.22493 62.3838,5.34766 44.0072,-24.95566 46.4252,-4.27803 z"
           style="fill:#5647fb;fill-opacity:0.102;fill-rule:evenodd;stroke:none"
           id="path106"
           inkscape:connector-curvature="0" />
        <path
           d="m 747.7077,-17.51209 c 2.4179,20.677627 2.4181,98.04013 -31.9172,128.34349 -34.3355,30.3033 -129.604,26.0253 -174.0948,53.4765 -44.4908,27.4512 -55.1298,87.3448 -92.8504,111.231 -37.7205,23.8862 -87.0474,9.6258 -133.4725,32.086 -46.4252,22.4601 -96.7193,95.901 -145.0789,102.6747 C 121.9343,417.0734 33.43646,413.5082 25.21528,348.2669 16.99411,283.0256 63.4193,84.80624 120.9673,18.85193 c 57.548,-65.95431 152.8163,-60.96325 249.5356,-66.31092 96.7192,-5.34766 268.3958,28.87726 330.7796,34.22493 62.3839,5.347663 44.0072,-24.95566 46.4252,-4.27803 z"
           style="fill:#5647fb;fill-opacity:0.102;fill-rule:evenodd;stroke:none"
           id="path108"
           inkscape:connector-curvature="0" />
        <path
           d="m 607.3102,-130.9736 c 2.4179,20.6777 2.4181,98.04018 -31.9172,128.343508 C 541.0575,27.67322 445.789,23.39521 401.2982,50.84639 c -44.4907,27.4512 -55.1298,87.34481 -92.8504,111.23101 -37.7205,23.8862 -87.0473,9.6259 -133.4725,32.086 -46.4252,22.4601 -96.71926,95.901 -145.07887,102.6748 -48.35962,6.7737 -136.85743,3.2085 -145.07863,-62.0328 -8.2212,-65.2413 38.20403,-263.46062 95.75204,-329.41493 57.54801,-65.95427 152.81626,-60.96327 249.53556,-66.31087 96.7192,-5.3477 268.3958,28.8772 330.7796,34.2249 62.3839,5.3476 44.0073,-24.9557 46.4252,-4.2781 z"
           style="fill:#5647fb;fill-opacity:0.102;fill-rule:evenodd;stroke:none"
           id="path110"
           inkscape:connector-curvature="0" />
        <path
           d="m 621.8119,-110.9147 c 2.4179,20.67764 2.4182,98.04015 -31.9172,128.34348 -34.3354,30.30331 -129.604,26.0253 -174.0948,53.47648 -44.4907,27.4512 -55.1298,87.34484 -92.8503,111.23104 -37.7206,23.8862 -87.0474,9.6258 -133.4726,32.086 C 143.0518,236.6824 92.75777,310.1233 44.39816,316.897 -3.96146,323.6708 -92.45929,320.1056 -100.6805,254.8643 -108.9016,189.623 -62.47645,-8.596352 -4.928438,-74.55066 52.61957,-140.505 147.8879,-135.5139 244.6071,-140.8616 c 96.7192,-5.3476 268.3958,28.8773 330.7797,34.2249 62.3838,5.3477 44.0072,-24.9556 46.4251,-4.278 z"
           style="fill:#5647fb;fill-opacity:0.102;fill-rule:evenodd;stroke:none"
           id="path112"
           inkscape:connector-curvature="0" />
        <path
           d="M 222.2954,541.7963 H 771.9539 V -7.862348 H 222.2954 Z"
           style="fill:#5647fb;fill-opacity:0.502;fill-rule:nonzero;stroke:none"
           id="path114"
           inkscape:connector-curvature="0" />
      </g>
    </g>
  </g>
</svg>
