<?xml version="1.0" encoding="UTF-8"?>
<svg width="1920" height="1080" version="1.1" viewBox="0 0 508 285.75" xmlns="http://www.w3.org/2000/svg" xmlns:cc="http://creativecommons.org/ns#" xmlns:dc="http://purl.org/dc/elements/1.1/" xmlns:rdf="http://www.w3.org/1999/02/22-rdf-syntax-ns#" opacity="0.33" style="transform: scaleX(-1)">
 <defs>
  <clipPath id="clipPath209">
   <path d="m0 2.414e-5h1871.8v1080h-1871.8z"/>
  </clipPath>
 </defs>
 <metadata>
  <rdf:RDF>
   <cc:Work rdf:about="">
    <dc:format>image/svg+xml</dc:format>
    <dc:type rdf:resource="http://purl.org/dc/dcmitype/StillImage"/>
    <dc:title/>
   </cc:Work>
  </rdf:RDF>
 </metadata>
 <g transform="matrix(.30608 0 0 -.31528 -49.307 309.67)">
  <g clip-path="url(#clipPath209)">
   <path d="m0 1080h1871.8v-1080h-1871.8z" fill="#fff"/>
  </g>
  <path d="m0 1080h1872v-1080h-1872z" fill="#fff"/>
  <g fill="#5647fb" fill-opacity=".051" fill-rule="evenodd">
   <path d="m-208.78 95.04c25.267 114.87 16.845 394.28 126.34 502.94 109.49 108.66 404.28 63.126 530.62 149.02 126.34 85.893 91.244 283.55 227.41 366.34 136.16 82.788 459.03 57.951 589.58 130.39 130.55 72.44 110.9 251.47 193.72 304.25 82.822 52.777 112.3 146.95 303.21 12.418 190.91-134.53 715.91-523.64 842.25-819.6 126.34-295.97 231.62-757.51-84.225-956.2-315.84-198.69-1351.8-256.64-1810.8-235.95-459.03 20.697-793.12 266.99-943.32 360.13-150.2 93.137 6e-4 71.405 25.268 186.27z"/>
   <path d="m31.464-127.98c-7.0186 124.18 18.249 378.76 126.34 484.31 108.09 105.56 391.65 68.3 522.2 149.02s141.78 262.85 261.1 335.29c119.32 72.44 329.88 38.29 454.82 99.346 124.93 61.057 131.95 213.18 294.79 266.99 162.83 53.812 582.56 232.84 682.22 55.882 99.666-176.96 61.765-849.61-84.225-1117.6-145.99-268.03-443.58-401.52-791.72-490.52s-1051.4-81.753-1297.1-43.464c-245.66 38.29-161.43 136.6-168.45 260.78z"/>
   <path d="m-13.267-63.337c-7.0186 124.18 18.249 378.76 126.34 484.31 108.09 105.56 391.65 68.3 522.2 149.02s141.78 262.85 261.1 335.29c119.32 72.44 329.88 38.29 454.81 99.345 124.93 61.057 131.95 213.18 294.79 266.99s582.56 232.84 682.22 55.882c99.667-176.96 61.766-849.61-84.224-1117.6-145.99-268.03-443.59-401.52-791.72-490.52-348.13-88.997-1051.4-81.753-1297.1-43.464-245.66 38.29-161.43 136.6-168.45 260.78z"/>
   <path d="m-250.88 160.8c25.267 114.87 16.845 394.28 126.34 502.94 109.49 108.66 404.28 63.126 530.62 149.02 126.34 85.893 91.244 283.55 227.41 366.34 136.16 82.788 459.03 57.952 589.58 130.39 130.55 72.44 110.9 251.47 193.72 304.25s112.3 146.95 303.21 12.419c190.91-134.53 715.91-523.64 842.25-819.6 126.34-295.97 231.62-757.51-84.225-956.2-315.84-198.69-1351.8-256.64-1810.8-235.95-459.03 20.697-793.12 266.99-943.32 360.13-150.2 93.137 6e-4 71.405 25.268 186.27z"/>
   <path d="m349-262.54c-7.0184 60.022-7.0192 284.58 92.647 372.55 99.666 87.962 376.21 75.544 505.35 155.23 129.15 79.683 160.03 253.54 269.52 322.87 109.49 69.335 252.68 27.941 387.44 93.137 134.76 65.196 280.75 278.38 421.12 298.04 140.38 19.662 397.26 9.3136 421.12-180.06 23.864-189.38-110.9-764.76-277.94-956.2-167.05-191.45-443.58-176.96-724.34-192.48-280.75-15.523-779.08 83.823-960.16 99.346-181.08 15.523-127.74-72.44-134.76-12.418z"/>
   <path d="m306.91-219.72c-7.0184 60.022-7.0192 284.58 92.647 372.55 99.666 87.962 376.21 75.544 505.35 155.23 129.14 79.684 160.03 253.54 269.52 322.87 109.49 69.335 252.68 27.941 387.44 93.137 134.76 65.196 280.75 278.38 421.12 298.04s397.26 9.314 421.12-180.06c23.864-189.38-110.9-764.76-277.94-956.2-167.05-191.45-443.58-176.96-724.34-192.48-280.75-15.523-779.08 83.823-960.16 99.346-181.08 15.523-127.74-72.44-134.76-12.418z"/>
   <path d="m618.65-526.69c-7.0185 60.022-7.0192 284.58 92.647 372.55 99.666 87.962 376.21 75.544 505.35 155.23 129.14 79.683 160.03 253.54 269.52 322.87 109.49 69.335 252.68 27.941 387.44 93.137 134.76 65.196 280.75 278.38 421.12 298.04 140.38 19.662 397.26 9.3135 421.12-180.06 23.864-189.38-110.9-764.76-277.94-956.2-167.05-191.45-443.58-176.96-724.34-192.48-280.75-15.523-779.08 83.823-960.16 99.346-181.08 15.523-127.74-72.44-134.76-12.418z"/>
   <path d="m576.55-483.87c-7.0185 60.022-7.0193 284.58 92.647 372.55 99.666 87.962 376.21 75.544 505.35 155.23 129.14 79.683 160.03 253.54 269.52 322.87 109.49 69.335 252.68 27.941 387.44 93.137 134.76 65.196 280.75 278.38 421.12 298.04 140.38 19.662 397.26 9.3136 421.12-180.06 23.864-189.38-110.9-764.76-277.94-956.2-167.05-191.45-443.58-176.96-724.34-192.48-280.75-15.523-779.08 83.823-960.16 99.346-181.08 15.523-127.74-72.44-134.76-12.418z"/>
  </g>
 </g>
</svg>
